<svg xmlns="http://www.w3.org/2000/svg" width="18.28" height="16" viewBox="0 0 18.28 16">
  <metadata><?xpacket begin="﻿" id="W5M0MpCehiHzreSzNTczkc9d"?>
<x:xmpmeta xmlns:x="adobe:ns:meta/" x:xmptk="Adobe XMP Core 5.6-c138 79.159824, 2016/09/14-01:09:01        ">
   <rdf:RDF xmlns:rdf="http://www.w3.org/1999/02/22-rdf-syntax-ns#">
      <rdf:Description rdf:about=""/>
   </rdf:RDF>
</x:xmpmeta>
                       
<?xpacket end="w"?></metadata>
<defs>
    <style>
      .cls-1 {
        fill: ;
        
      }
    </style>
  </defs>
  <path id="basket" fill="#f6f6f6" fill-rule="evenodd" d="M1083.97,1247.14h-16a1.145,1.145,0,0,0,0,2.29h0.13l1.03,5.91a1.155,1.155,0,0,0,1.12.95h11.43a1.165,1.165,0,0,0,1.13-.95l1.02-5.91h0.14A1.145,1.145,0,0,0,1083.97,1247.14Zm-12.81,7.15h-0.05a0.592,0.592,0,0,1-.57-0.53l-0.29-3.71a0.587,0.587,0,0,1,.53-0.62,0.579,0.579,0,0,1,.62.53l0.28,3.71A0.578,0.578,0,0,1,1071.16,1254.29Zm3.66-.58a0.572,0.572,0,0,1-.57.58,0.578,0.578,0,0,1-.57-0.58V1250a0.576,0.576,0,0,1,.57-0.57,0.57,0.57,0,0,1,.57.57v3.71Zm3.43,0a0.57,0.57,0,1,1-1.14,0V1250a0.57,0.57,0,1,1,1.14,0v3.71Zm3.14,0.05a0.577,0.577,0,0,1-.57.53h-0.04a0.594,0.594,0,0,1-.53-0.62l0.29-3.71a0.564,0.564,0,0,1,.61-0.53,0.573,0.573,0,0,1,.53.62Zm-10.31-10.86a1.142,1.142,0,0,1,1.11-.9h1.49a0.57,0.57,0,0,0,.57.57h3.43a0.57,0.57,0,0,0,.57-0.57h1.49a1.153,1.153,0,0,1,1.12.9l0.83,3.67h1.18l-0.9-3.93a2.279,2.279,0,0,0-2.23-1.78h-1.49a0.576,0.576,0,0,0-.57-0.57h-3.43a0.576,0.576,0,0,0-.57.57h-1.49a2.259,2.259,0,0,0-2.22,1.78l-0.9,3.93h1.18Z" transform="translate(-1066.81 -1240.28)"/>
</svg>
